<svg xmlns="http://www.w3.org/2000/svg" width="272" height="48" viewBox="0 0 272 48"><path fill="#f86800" fill-rule="evenodd" d="M149 39a9 9 0 1 1 0-18 9 9 0 0 1 0 18zm22.8 0a9 9 0 1 1 0-18 9 9 0 0 1 0 18zm22.8 0a9 9 0 1 1 0-18 9 9 0 0 1 0 18zm22.8 0a9 9 0 1 1 0-18 9 9 0 0 1 0 18zm22.8 0a9 9 0 1 1 0-18 9 9 0 0 1 0 18zm22.8 0a9 9 0 1 1 0-18 9 9 0 0 1 0 18zM38.078 10.18c1.493 0 2.867.193 4.12.58 1.253.387 2.34.973 3.26 1.76.92.787 1.64 1.767 2.16 2.94.52 1.173.78 2.547.78 4.12s-.253 2.947-.76 4.12-1.22 2.147-2.14 2.92c-.92.773-2.013 1.36-3.28 1.76-1.267.4-2.647.6-4.14.6h-3.4v8.84c0 .453-.227.68-.68.68h-3.88c-.453 0-.68-.227-.68-.68V10.86c0-.453.227-.68.68-.68h7.96zm-3.4 4.52v9.76h3.36c1.52 0 2.72-.407 3.6-1.22.88-.813 1.32-2.033 1.32-3.66 0-1.627-.44-2.847-1.32-3.66-.88-.813-2.08-1.22-3.6-1.22h-3.36zm17.2-5.08c0-.427.187-.693.56-.8l3-.76c.16-.053.313-.093.46-.12.147-.027.273-.04.38-.04.32 0 .48.173.48.52v29.4c0 .453-.227.68-.68.68h-3.52c-.453 0-.68-.227-.68-.68V9.62zm25.92 28.2c0 .453-.227.68-.68.68h-3.56c-.453 0-.68-.227-.68-.68v-1.04c-.613.613-1.373 1.12-2.28 1.52-.907.4-1.893.6-2.96.6a7.4 7.4 0 0 1-2.5-.42 5.471 5.471 0 0 1-2.06-1.3c-.587-.587-1.053-1.347-1.4-2.28-.347-.933-.52-2.04-.52-3.32v-10.6c0-.48.213-.76.64-.84l3.48-.52c.507-.08.76.107.76.56v10.28c0 1.44.273 2.493.82 3.16.547.667 1.34 1 2.38 1 .64 0 1.287-.133 1.94-.4a5.102 5.102 0 0 0 1.7-1.12V20.98c0-.48.227-.76.68-.84l3.48-.52c.507-.08.76.107.76.56v17.64zm4-.56c-.24-.133-.38-.28-.42-.44-.04-.16-.007-.36.1-.6l.96-2.4c.187-.427.507-.533.96-.32.747.373 1.553.7 2.42.98s1.767.42 2.7.42c.827 0 1.48-.127 1.96-.38s.72-.673.72-1.26c0-.453-.2-.8-.6-1.04-.4-.24-1.093-.533-2.08-.88l-2.28-.8c-1.44-.507-2.547-1.2-3.32-2.08-.773-.88-1.16-2.013-1.16-3.4 0-.88.173-1.66.52-2.34a4.977 4.977 0 0 1 1.44-1.72c.613-.467 1.333-.82 2.16-1.06a9.426 9.426 0 0 1 2.64-.36c1.147 0 2.207.107 3.18.32.973.213 1.753.467 2.34.76.453.213.573.56.36 1.04l-1 2.36c-.187.427-.507.533-.96.32a17.762 17.762 0 0 0-1.8-.6 7.25 7.25 0 0 0-1.96-.28c-.747 0-1.313.127-1.7.38s-.58.607-.58 1.06c0 .4.16.727.48.98.32.253.827.5 1.52.74l2.44.84c1.6.533 2.84 1.213 3.72 2.04.88.827 1.32 1.947 1.32 3.36 0 .987-.187 1.853-.56 2.6a5.238 5.238 0 0 1-1.58 1.88c-.68.507-1.487.887-2.42 1.14a11.59 11.59 0 0 1-3.04.38c-1.36 0-2.6-.18-3.72-.54-1.12-.36-2.04-.727-2.76-1.1zm16.8 0c-.24-.133-.38-.28-.42-.44-.04-.16-.007-.36.1-.6l.96-2.4c.187-.427.507-.533.96-.32.747.373 1.553.7 2.42.98s1.767.42 2.7.42c.827 0 1.48-.127 1.96-.38s.72-.673.72-1.26c0-.453-.2-.8-.6-1.04-.4-.24-1.093-.533-2.08-.88l-2.28-.8c-1.44-.507-2.547-1.2-3.32-2.08-.773-.88-1.16-2.013-1.16-3.4 0-.88.173-1.66.52-2.34a4.977 4.977 0 0 1 1.44-1.72c.613-.467 1.333-.82 2.16-1.06a9.426 9.426 0 0 1 2.64-.36c1.147 0 2.207.107 3.18.32.973.213 1.753.467 2.34.76.453.213.573.56.36 1.04l-1 2.36c-.187.427-.507.533-.96.32a17.762 17.762 0 0 0-1.8-.6 7.25 7.25 0 0 0-1.96-.28c-.747 0-1.313.127-1.7.38s-.58.607-.58 1.06c0 .4.16.727.48.98.32.253.827.5 1.52.74l2.44.84c1.6.533 2.84 1.213 3.72 2.04.88.827 1.32 1.947 1.32 3.36 0 .987-.187 1.853-.56 2.6a5.238 5.238 0 0 1-1.58 1.88c-.68.507-1.487.887-2.42 1.14a11.59 11.59 0 0 1-3.04.38c-1.36 0-2.6-.18-3.72-.54-1.12-.36-2.04-.727-2.76-1.1zm28.86 1.24c-.453 0-.68-.227-.68-.68v-.84c-.64.533-1.407.987-2.3 1.36-.893.373-1.873.56-2.94.56a7.61 7.61 0 0 1-2.46-.4 6.582 6.582 0 0 1-2.1-1.16 5.557 5.557 0 0 1-1.46-1.86c-.36-.733-.54-1.567-.54-2.5 0-1.013.2-1.907.6-2.68a5.82 5.82 0 0 1 1.64-1.96c.693-.533 1.507-.94 2.44-1.22s1.933-.42 3-.42c.827 0 1.573.067 2.24.2.667.133 1.293.307 1.88.52v-.56c0-1.28-.293-2.153-.88-2.62-.587-.467-1.547-.7-2.88-.7a11.17 11.17 0 0 0-4.6 1c-.453.213-.76.107-.92-.32l-.88-2.44c-.08-.213-.1-.393-.06-.54.04-.147.193-.287.46-.42.32-.16.72-.313 1.2-.46a18.17 18.17 0 0 1 5.24-.78c2.72 0 4.74.573 6.06 1.72 1.32 1.147 1.98 3.107 1.98 5.88v10.64c0 .453-.227.68-.68.68h-3.36zm-4.36-3.24c.693 0 1.36-.12 2-.36.64-.24 1.2-.587 1.68-1.04V30.5a7.916 7.916 0 0 0-1.5-.44 8.444 8.444 0 0 0-1.62-.16c-1.12 0-2.033.227-2.74.68-.707.453-1.06 1.147-1.06 2.08 0 .8.3 1.433.9 1.9.6.467 1.38.7 2.34.7zM15.783 32.747c-.282 0-.506-.053-.672-.16a1.421 1.421 0 0 1-.442-.477L9.6 24.663v7.407c0 .451-.218.677-.653.677H5.028c-.435 0-.653-.226-.653-.677V17.018c0-.452.218-.677.653-.677h3.918c.435 0 .653.225.653.677v6.73l5.07-6.77c.128-.213.276-.372.442-.478.166-.106.39-.16.672-.16h4.302c.23 0 .404.1.519.3.115.198.07.43-.135.696l-5.454 6.81 5.57 7.605c.204.266.25.498.134.697a.562.562 0 0 1-.519.299h-4.417zM0 36.15c0-.447.225-.67.675-.67h23.807c.45 0 .674.223.674.67V38c0 .447-.225.67-.674.67H.675C.225 38.67 0 38.448 0 38v-1.85zm0-25.157c0-.446.225-.669.675-.669h23.807c.45 0 .674.223.674.67v1.85c0 .446-.225.67-.674.67H.675c-.45 0-.675-.224-.675-.67v-1.85z"/></svg>
