<?xml version="1.0" encoding="UTF-8" standalone="no"?>
<svg
   xmlns:dc="http://purl.org/dc/elements/1.1/"
   xmlns:cc="http://creativecommons.org/ns#"
   xmlns:rdf="http://www.w3.org/1999/02/22-rdf-syntax-ns#"
   xmlns:svg="http://www.w3.org/2000/svg"
   xmlns="http://www.w3.org/2000/svg"
   version="1.1"
   id="Layer_1"
   x="0"
   y="0"
   width="500"
   height="500"
   xml:space="preserve"><metadata
     id="metadata53"><rdf:RDF><cc:Work
         rdf:about=""><dc:format>image/svg+xml</dc:format><dc:type
           rdf:resource="http://purl.org/dc/dcmitype/StillImage" /><dc:title></dc:title></cc:Work></rdf:RDF></metadata><defs
     id="defs51"><path
       d="M15.783 32.747c-.282 0-.506-.053-.672-.16a1.421 1.421 0 0 1-.442-.477L9.6 24.663v7.407c0 .451-.218.677-.653.677H5.028c-.435 0-.653-.226-.653-.677V17.018c0-.452.218-.677.653-.677h3.918c.435 0 .653.225.653.677v6.73l5.07-6.77c.128-.213.276-.372.442-.478.166-.106.39-.16.672-.16h4.302c.23 0 .404.1.519.3.115.198.07.43-.135.696l-5.454 6.81 5.57 7.605c.204.266.25.498.134.697a.562.562 0 0 1-.519.299h-4.417zM0 36.15c0-.447.225-.67.675-.67h23.807c.45 0 .674.223.674.67V38c0 .447-.225.67-.674.67H.675C.225 38.67 0 38.448 0 38v-1.85zm0-25.157c0-.446.225-.669.675-.669h23.807c.45 0 .674.223.674.67v1.85c0 .446-.225.67-.674.67H.675c-.45 0-.675-.224-.675-.67v-1.85z"
       id="a" /></defs><style
     id="style2">.st0{fill-rule:evenodd;clip-rule:evenodd;fill:#d1d1d1}.st3{fill:#949494}.st6{display:inline;fill:#d4d3cf}.st13{fill-rule:evenodd;clip-rule:evenodd;fill:#f3f3f3}</style><g
     id="Omena"><circle
       class="st0"
       cx="245.9"
       cy="150.6"
       r="23.9"
       id="circle4" /><path
       d="M249.3 130.3l-1.1.7c.1.2 2.8 3.6 8.5 3.6l.4-1.3c-5.6.3-7.7-2.9-7.8-3z"
       fill="#b5b5b5"
       id="path6" /><path
       d="M252.1 132.6c2-1.8 4.1-4.3 3.6-5.8l.2-.3c1.5 2.4-1.4 4.3-3.3 6.3l-.5-.2z"
       fill-rule="evenodd"
       clip-rule="evenodd"
       fill="#b5b5b5"
       id="path8" /></g><g
     id="Salaatti"><path
       class="st3"
       d="M211.1 126.6h-.2c1-5.4-1.9-10.9-7.2-13-6-2.4-12.8.6-15.2 6.6-.9 2.3-1 4.7-.5 7-2-1.6-4.5-2.7-7.3-2.7-6.5 0-11.7 5.2-11.7 11.7s5.2 11.7 11.7 11.7 11.7-5.2 11.7-11.7c0-.9-.1-1.8-.3-2.7.9.7 1.9 1.4 3 1.8h.2c-1 5.4 1.9 10.9 7.2 13 6 2.4 12.8-.6 15.2-6.6 2.4-5.9-.5-12.7-6.6-15.1z"
       id="path11" /><path
       class="st3"
       d="M217.8 139.4h-.2c1-5.4-1.9-10.9-7.2-13-6-2.4-12.8.6-15.2 6.6-.9 2.3-1 4.7-.5 7-2-1.6-4.5-2.7-7.3-2.7-6.5 0-11.7 5.2-11.7 11.7s5.2 11.7 11.7 11.7 11.7-5.2 11.7-11.7c0-.9-.1-1.8-.3-2.7.9.7 1.9 1.4 3 1.8h.2c-1 5.4 1.9 10.9 7.2 13 6 2.4 12.8-.6 15.2-6.6s-.5-12.7-6.6-15.1z"
       id="path13" /><path
       class="st3"
       d="M181.5 130H207v44.3h-25.5z"
       id="path15" /></g><g
     id="Maito_2"><path
       transform="rotate(-78.691 345.704 196.104)"
       fill="#d1d1d1"
       d="M263.1 160.4h165.2v71.4H263.1z"
       id="path18" /><path
       fill="#e6e6e6"
       d="M400.4 98.9l-66.8-13.3-6.7 22.5 70 14z"
       id="path20" /><path
       fill="#f3f3f3"
       d="M402.9 86L337 72.6l-3.3 13 66.7 13.3z"
       id="path22" /></g><g
     id="Leipä"><path
       d="M173.5 225.5c-18.4 8.6-22.2-3.8-30.8-22.2L94.6 100c-8.6-18.4-18.8-36-.3-44.6 18.4-8.6 40.4-.6 48.9 17.8l48.1 103.3c8.6 18.5.6 40.5-17.8 49z"
       fill-rule="evenodd"
       clip-rule="evenodd"
       fill="#e7e7e7"
       id="path25" /><path
       class="st0"
       d="M110.8 52.9c13.7.2 26.7 8.1 32.9 21.3l48.1 103.3c5.2 11.2 4.3 23.6-1.3 33.6"
       id="path27" /></g><g
     id="Kahvat"><path
       class="st13"
       d="M285.8 57.8l-1.3-1.5-68.7-.6-.8.9-18.3 19.1V77l107.2 1v-.6z"
       id="path30" /><path
       transform="matrix(.0094 -1 1 .0094 87.274 321.807)"
       class="st13"
       d="M166.1 107H246v19.7h-79.9z"
       id="path32" /><path
       transform="matrix(.0094 -1 1 .0094 173.254 410.2)"
       class="st13"
       d="M253.7 107.8h79.9v19.7h-79.9z"
       id="path34" /><path
       transform="matrix(.0094 -1 1 .0094 118.27 291.794)"
       class="st0"
       d="M197.1 76.4h18.6V96h-18.6z"
       id="path36" /><path
       transform="matrix(.0094 -1 1 .0094 204.3 380.139)"
       class="st0"
       d="M284.7 77.1h18.6v19.7h-18.6z"
       id="path38" /></g><linearGradient
     id="Kassi_1_"
     gradientUnits="userSpaceOnUse"
     x1="249.95"
     y1="796.89"
     x2="249.95"
     y2="497.89"
     gradientTransform="translate(0 -341.89)"><stop
       offset="0"
       stop-color="#e7e7e7"
       id="stop41" /><stop
       offset="1"
       stop-color="#f9f9f9"
       id="stop43" /></linearGradient><path
     id="Kassi"
     d="M383.6 455H116.4c-8.5 0-15.4-6.7-15.4-14.9V156h297.9v284.2c0 8.1-6.8 14.8-15.3 14.8z"
     fill-rule="evenodd"
     clip-rule="evenodd"
     fill="url(#Kassi_1_)" /><flowRoot
     xml:space="preserve"
     id="flowRoot57"
     style="font-style:normal;font-weight:normal;font-size:40px;line-height:1.25;font-family:sans-serif;letter-spacing:0px;word-spacing:0px;fill:#000000;fill-opacity:1;stroke:none"><flowRegion
       id="flowRegion59"><rect
         id="rect61"
         width="93.220337"
         height="129.23729"
         x="-603.81354"
         y="173.72882" /></flowRegion><flowPara
       id="flowPara63" /></flowRoot><g
     transform="matrix(8.4091213,0,0,6.3067004,-243.17813,-256.7598)"
     style="fill:#f86800;fill-rule:evenodd"
     id="g9"><g
       transform="matrix(0.19657228,0,0,0.23122511,-57.17026,81.835934)"
       id="g244"
       style="clip-rule:evenodd;fill-rule:evenodd;image-rendering:optimizeQuality;shape-rendering:geometricPrecision;text-rendering:geometricPrecision"><g
         transform="translate(81.198701,-28.746354)"
         id="g231"><path
           style="fill:#f86800;fill-opacity:1;fill-rule:nonzero;stroke-width:0.4809826"
           d="m 537.8513,49.681821 c 0,-16.026242 -14.25991,-22.447406 -30.36554,-22.447406 -19.88872,0 -28.9293,12.195738 -28.9293,24.289383 v 0.829067 h 17.69608 c 0,-6.661391 4.97912,-10.09979 11.18858,-10.09979 4.87945,0 10.84819,2.084879 10.84819,8.058395 0,4.018328 -1.99004,6.070335 -8.26107,9.881719 -8.3255,5.061419 -10.10351,9.990077 -10.10351,19.004145 v 2.023595 h 17.48544 v -0.134553 c 0,-8.185403 2.42304,-9.076657 8.80502,-13.356529 C 534.11661,62.58536 537.8513,57.4125 537.8513,49.681794 Z M 517.515,87.130141 H 499.92473 V 103.7452 H 517.515 Z"
           id="path229" /></g></g></g></svg>