<?xml version="1.0" encoding="UTF-8" standalone="no"?>
<svg
   xmlns:dc="http://purl.org/dc/elements/1.1/"
   xmlns:cc="http://creativecommons.org/ns#"
   xmlns:rdf="http://www.w3.org/1999/02/22-rdf-syntax-ns#"
   xmlns:svg="http://www.w3.org/2000/svg"
   xmlns="http://www.w3.org/2000/svg"
   xmlns:xlink="http://www.w3.org/1999/xlink"
   width="47.181881"
   height="28.346001"
   viewBox="0 0 47.181881 28.346001"
   version="1.1"
   id="svg11">
  <metadata
     id="metadata15">
    <rdf:RDF>
      <cc:Work
         rdf:about="">
        <dc:format>image/svg+xml</dc:format>
        <dc:type
           rdf:resource="http://purl.org/dc/dcmitype/StillImage" />
        <dc:title></dc:title>
      </cc:Work>
    </rdf:RDF>
  </metadata>
  <defs
     id="defs3">
    <path
       id="a"
       d="m 15.783,32.747 c -0.282,0 -0.506,-0.053 -0.672,-0.16 A 1.421,1.421 0 0 1 14.669,32.11 L 9.6,24.663 v 7.407 c 0,0.451 -0.218,0.677 -0.653,0.677 H 5.028 c -0.435,0 -0.653,-0.226 -0.653,-0.677 V 17.018 c 0,-0.452 0.218,-0.677 0.653,-0.677 h 3.918 c 0.435,0 0.653,0.225 0.653,0.677 v 6.73 l 5.07,-6.77 c 0.128,-0.213 0.276,-0.372 0.442,-0.478 0.166,-0.106 0.39,-0.16 0.672,-0.16 h 4.302 c 0.23,0 0.404,0.1 0.519,0.3 0.115,0.198 0.07,0.43 -0.135,0.696 l -5.454,6.81 5.57,7.605 c 0.204,0.266 0.25,0.498 0.134,0.697 A 0.562,0.562 0 0 1 20.2,32.747 Z M 0,36.15 c 0,-0.447 0.225,-0.67 0.675,-0.67 h 23.807 c 0.45,0 0.674,0.223 0.674,0.67 V 38 c 0,0.447 -0.225,0.67 -0.674,0.67 H 0.675 C 0.225,38.67 0,38.448 0,38 Z M 0,10.993 c 0,-0.446 0.225,-0.669 0.675,-0.669 h 23.807 c 0.45,0 0.674,0.223 0.674,0.67 v 1.85 c 0,0.446 -0.225,0.67 -0.674,0.67 H 0.675 C 0.225,13.514 0,13.29 0,12.844 v -1.85 z" />
  </defs>
  <g
     transform="translate(-44.253086,-9.9104198)"
     style="fill:#f86800;fill-rule:evenodd"
     id="g9">
    <use
       xlink:href="#a"
       id="use7"
       transform="translate(44.253086,-0.41358024)"
       x="0"
       y="0"
       width="100%"
       height="100%" />
    <g
       style="clip-rule:evenodd;fill-rule:evenodd;image-rendering:optimizeQuality;shape-rendering:geometricPrecision;text-rendering:geometricPrecision"
       id="g244"
       transform="matrix(0.36016019,0,0,0.36623894,-131.5222,10.601496)">
      <g
         id="g231"
         transform="translate(81.198701,-28.746354)">
        <path
           id="path229"
           d="m 537.8513,49.681821 c 0,-16.026242 -14.25991,-22.447406 -30.36554,-22.447406 -19.88872,0 -28.9293,12.195738 -28.9293,24.289383 v 0.829067 h 17.69608 c 0,-6.661391 4.97912,-10.09979 11.18858,-10.09979 4.87945,0 10.84819,2.084879 10.84819,8.058395 0,4.018328 -1.99004,6.070335 -8.26107,9.881719 -8.3255,5.061419 -10.10351,9.990077 -10.10351,19.004145 v 2.023595 h 17.48544 v -0.134553 c 0,-8.185403 2.42304,-9.076657 8.80502,-13.356529 C 534.11661,62.58536 537.8513,57.4125 537.8513,49.681794 Z M 517.515,87.130141 H 499.92473 V 103.7452 H 517.515 Z"
           style="fill:#f86800;fill-opacity:1;fill-rule:nonzero;stroke-width:0.4809826" />
      </g>
    </g>
  </g>
</svg>
