<svg xmlns="http://www.w3.org/2000/svg" width="148" height="48" viewBox="0 0 148 48"><path fill="#f86800" fill-rule="evenodd" d="M30.158 38.6c-.453 0-.68-.227-.68-.68V10.96c0-.453.227-.68.68-.68h3.278c.506 0 .893.173 1.16.52l8.635 10.48 8.715-10.48c.267-.347.64-.52 1.12-.52h3.238c.453 0 .68.227.68.68v26.96c0 .453-.227.68-.68.68h-3.838c-.453 0-.68-.227-.68-.68V18.2l-8.036 9.68c-.16.213-.34.313-.54.3-.2-.013-.379-.113-.539-.3l-7.996-9.64v19.68c0 .453-.226.68-.68.68h-3.837zm43.005 0c-.455 0-.683-.227-.683-.68v-.84c-.642.533-1.41.987-2.307 1.36-.896.373-1.879.56-2.949.56a7.655 7.655 0 0 1-2.467-.4 6.609 6.609 0 0 1-2.107-1.16 5.56 5.56 0 0 1-1.464-1.86c-.362-.733-.542-1.567-.542-2.5 0-1.013.2-1.907.602-2.68a5.82 5.82 0 0 1 1.645-1.96c.695-.533 1.511-.94 2.447-1.22.937-.28 1.94-.42 3.01-.42.829 0 1.578.067 2.247.2.668.133 1.297.307 1.885.52v-.56c0-1.28-.294-2.153-.882-2.62-.589-.467-1.552-.7-2.89-.7-1.577 0-3.115.333-4.613 1-.455.213-.763.107-.923-.32l-.883-2.44c-.08-.213-.1-.393-.06-.54.04-.147.194-.287.461-.42.321-.16.722-.313 1.204-.46a18.278 18.278 0 0 1 5.256-.78c2.729 0 4.755.573 6.079 1.72 1.324 1.147 1.986 3.107 1.986 5.88v10.64c0 .453-.227.68-.682.68h-3.37zm-4.374-3.24a5.68 5.68 0 0 0 2.006-.36 4.967 4.967 0 0 0 1.685-1.04V30.6a7.96 7.96 0 0 0-1.504-.44A8.496 8.496 0 0 0 69.35 30c-1.124 0-2.04.227-2.749.68-.709.453-1.063 1.147-1.063 2.08 0 .8.3 1.433.903 1.9.602.467 1.384.7 2.347.7zm17.002-12.64c.669-1.04 1.485-1.807 2.448-2.3a6.598 6.598 0 0 1 3.049-.74c.589 0 1.083.067 1.485.2.374.133.521.387.441.76l-.843 3.28c-.08.453-.374.64-.882.56a5.082 5.082 0 0 0-.743-.12 8.703 8.703 0 0 0-.822-.04c-.91 0-1.712.2-2.408.6a5.58 5.58 0 0 0-1.725 1.52v11.48c0 .453-.227.68-.682.68h-3.53c-.456 0-.683-.227-.683-.68V21.08c0-.48.214-.76.642-.84l3.49-.52c.509-.08.763.107.763.56v2.44zm27.951-2.64c.328 0 .52.107.574.32.055.213-.027.427-.246.64l-6.56 6.28 7.093 10.32c.164.24.198.46.102.66-.095.2-.293.3-.594.3h-4.1c-.492 0-.874-.187-1.148-.56l-5.042-7.48-2.87 2.68v4.68c0 .453-.232.68-.697.68h-3.607c-.465 0-.697-.227-.697-.68V9.72c0-.427.191-.693.574-.8l3.074-.76c.164-.053.322-.093.472-.12.15-.027.28-.04.39-.04.327 0 .491.173.491.52v19.36l7.503-7.32a1.64 1.64 0 0 1 1.188-.48h4.1zm17.825 17.6c-.642.32-1.544.62-2.708.9-1.163.28-2.36.42-3.591.42-1.444 0-2.775-.233-3.992-.7-1.217-.467-2.267-1.12-3.15-1.96-.883-.84-1.572-1.86-2.066-3.06-.495-1.2-.743-2.533-.743-4 0-1.387.248-2.667.743-3.84a9.396 9.396 0 0 1 2.026-3.04 9.274 9.274 0 0 1 3.01-2 9.385 9.385 0 0 1 3.65-.72c1.204 0 2.334.207 3.39.62a8.009 8.009 0 0 1 2.77 1.8c.789.787 1.41 1.76 1.865 2.92.455 1.16.682 2.5.682 4.02v.8c0 .453-.227.68-.682.68h-12.478c.214 1.36.802 2.433 1.765 3.22.963.787 2.207 1.18 3.732 1.18a10.087 10.087 0 0 0 4.253-.92c.428-.16.735-.04.923.36l.963 2.28c.214.48.093.827-.362 1.04zm-6.94-14.12a4.376 4.376 0 0 0-2.73.92c-.802.613-1.323 1.533-1.564 2.76h8.305c-.16-1.227-.601-2.147-1.324-2.76-.722-.613-1.618-.92-2.688-.92zm18.344.36v8.72c0 1.467.602 2.2 1.805 2.2.214 0 .442-.033.682-.1.241-.067.442-.127.602-.18.428-.133.71 0 .843.4l.682 2.36c.053.187.073.36.06.52-.013.16-.167.307-.461.44-.321.16-.803.32-1.445.48-.642.16-1.35.24-2.126.24-1.873 0-3.27-.487-4.193-1.46-.923-.973-1.385-2.38-1.385-4.22v-9.4h-2.367c-.455 0-.682-.227-.682-.68v-2.48c0-.453.227-.68.682-.68h2.367v-4.04c0-.4.16-.693.482-.88l3.41-1.92c.188-.107.362-.16.522-.16.348 0 .522.187.522.56v6.44h4.213c.535 0 .709.267.521.8l-.682 2.32c-.08.293-.187.487-.32.58-.135.093-.349.14-.643.14h-3.09zM15.783 32.747c-.282 0-.506-.053-.672-.16a1.421 1.421 0 0 1-.442-.477L9.6 24.663v7.407c0 .451-.218.677-.653.677H5.028c-.435 0-.653-.226-.653-.677V17.018c0-.452.218-.677.653-.677h3.918c.435 0 .653.225.653.677v6.73l5.07-6.77c.128-.213.276-.372.442-.478.166-.106.39-.16.672-.16h4.302c.23 0 .404.1.519.3.115.198.07.43-.135.696l-5.454 6.81 5.57 7.605c.204.266.25.498.134.697a.562.562 0 0 1-.519.299h-4.417zM0 36.15c0-.447.225-.67.675-.67h23.807c.45 0 .674.223.674.67V38c0 .447-.225.67-.674.67H.675C.225 38.67 0 38.448 0 38v-1.85zm0-25.157c0-.446.225-.669.675-.669h23.807c.45 0 .674.223.674.67v1.85c0 .446-.225.67-.674.67H.675c-.45 0-.675-.224-.675-.67v-1.85z"/></svg>
