<svg xmlns="http://www.w3.org/2000/svg" xmlns:xlink="http://www.w3.org/1999/xlink" width="274" height="48" viewBox="0 0 274 48"><defs><path id="a" d="M15.781 32.747c-.282 0-.506-.053-.672-.16a1.421 1.421 0 0 1-.442-.477l-5.07-7.447v7.407c0 .451-.218.677-.653.677H5.026c-.436 0-.653-.226-.653-.677V17.018c0-.452.217-.677.653-.677h3.918c.435 0 .653.225.653.677v6.73l5.07-6.77a1.41 1.41 0 0 1 .442-.478c.166-.106.39-.16.672-.16h4.302c.23 0 .403.1.519.3.115.198.07.43-.135.696l-5.454 6.81 5.57 7.605c.204.266.25.498.134.697a.562.562 0 0 1-.519.299h-4.417zM-.002 36.15c0-.447.225-.67.674-.67H24.48c.45 0 .674.223.674.67V38c0 .447-.225.67-.674.67H.672c-.45 0-.674-.223-.674-.67v-1.85zm0-25.157c0-.446.225-.669.674-.669H24.48c.45 0 .674.223.674.67v1.85c0 .446-.225.67-.674.67H.672c-.45 0-.674-.224-.674-.67v-1.85z"/></defs><g fill="none" fill-rule="evenodd"><path fill="#C00D1E" d="M27.62 24.34c0-2.213.393-4.22 1.18-6.02.787-1.8 1.873-3.34 3.26-4.62 1.387-1.28 3.013-2.267 4.88-2.96 1.867-.693 3.867-1.04 6-1.04.72 0 1.453.047 2.2.14a18.215 18.215 0 0 1 4.1 1c.6.227 1.1.46 1.5.7.267.16.407.333.42.52.013.187-.033.4-.14.64l-1.92 4.36c-.213.453-.547.573-1 .36a18.8 18.8 0 0 0-2.42-.98c-.787-.253-1.753-.38-2.9-.38-1.067 0-2.08.187-3.04.56-.96.373-1.8.92-2.52 1.64-.72.72-1.287 1.593-1.7 2.62-.413 1.027-.62 2.18-.62 3.46 0 1.28.207 2.433.62 3.46.413 1.027.98 1.9 1.7 2.62.72.72 1.56 1.267 2.52 1.64s1.973.56 3.04.56c1.147 0 2.113-.127 2.9-.38a18.8 18.8 0 0 0 2.42-.98c.453-.213.787-.093 1 .36l1.92 4.36c.107.24.153.453.14.64-.013.187-.153.36-.42.52-.4.24-.9.473-1.5.7a18.215 18.215 0 0 1-4.1 1c-.747.093-1.48.14-2.2.14-2.133 0-4.133-.347-6-1.04-1.867-.693-3.493-1.68-4.88-2.96s-2.473-2.82-3.26-4.62c-.787-1.8-1.18-3.807-1.18-6.02zm27.589-13.48c0-.453.226-.68.68-.68h5.56c.453 0 .68.227.68.68v26.96c0 .453-.227.68-.68.68h-5.56c-.454 0-.68-.227-.68-.68V10.86zm31.948-.68c.213 0 .387.06.52.18s.173.327.12.62l-1 4.68c-.053.24-.147.42-.28.54-.133.12-.347.18-.64.18h-6v21.44c0 .453-.227.68-.68.68h-5.56c-.453 0-.68-.227-.68-.68V16.38h-6.72c-.453 0-.68-.227-.68-.68v-4.84c0-.453.227-.68.68-.68h20.92zm9.869 16.2l-9.08-15.28c-.134-.24-.154-.453-.06-.64.093-.187.26-.28.5-.28h6c.48 0 .84.213 1.08.64l5.08 8.96 5.16-8.96c.24-.427.6-.64 1.08-.64h5.76c.24 0 .406.093.5.28.093.187.073.4-.06.64l-9.08 15.28v11.44c0 .453-.227.68-.68.68h-5.52c-.454 0-.68-.227-.68-.68V26.38zm19.388 12.12c-.453 0-.68-.227-.68-.68V10.86c0-.453.227-.68.68-.68h4.32c.454 0 .814.133 1.08.4l8 8.96 8.04-8.96c.267-.267.627-.4 1.08-.4h4.28c.454 0 .68.227.68.68v26.96c0 .453-.226.68-.68.68h-5.52c-.453 0-.68-.227-.68-.68V20.54l-6.64 7.48c-.16.187-.346.28-.56.28-.213 0-.4-.093-.56-.28l-6.64-7.48v17.28c0 .453-.226.68-.68.68h-5.52zm49.709-4.52h-10.84l-1.48 3.88c-.08.24-.2.407-.36.5-.16.093-.347.14-.56.14h-5.32a.75.75 0 0 1-.58-.24c-.147-.16-.153-.387-.02-.68l10.52-26.76c.16-.427.467-.64.92-.64h4.72c.453 0 .76.213.92.64l10.52 26.76c.133.293.127.52-.02.68a.75.75 0 0 1-.58.24h-5.44c-.213 0-.4-.047-.56-.14-.16-.093-.28-.26-.36-.5l-1.48-3.88zm-8.8-5.52h6.72l-3.36-8.88-3.36 8.88zm29.908-.24h-2.68v9.6c0 .453-.226.68-.68.68h-5.56c-.453 0-.68-.227-.68-.68V10.86c0-.453.227-.68.68-.68h8.88c1.547 0 2.974.193 4.28.58 1.307.387 2.427.967 3.36 1.74.934.773 1.667 1.74 2.2 2.9.534 1.16.8 2.513.8 4.06 0 1.52-.386 2.893-1.16 4.12a9.633 9.633 0 0 1-2.96 3l6.12 11.04c.134.213.154.413.06.6-.093.187-.273.28-.54.28h-6.2c-.426 0-.76-.213-1-.64l-4.92-9.64zm-.4-5.2c1.094 0 2.007-.247 2.74-.74.734-.493 1.1-1.393 1.1-2.7 0-1.307-.366-2.213-1.1-2.72-.733-.507-1.646-.76-2.74-.76h-2.28v6.92h2.28zm32.109-.92l9.28 15.52c.133.213.16.413.08.6s-.253.28-.52.28h-6.52c-.453 0-.8-.213-1.04-.64l-6.48-11.24-3.6 4.36v6.84c0 .453-.227.68-.68.68h-5.56c-.453 0-.68-.227-.68-.68V10.86c0-.453.227-.68.68-.68h5.56c.453 0 .68.227.68.68V22.7l9.68-11.88c.16-.213.333-.373.52-.48.187-.107.427-.16.72-.16h6.44c.293 0 .473.113.54.34.067.227.02.447-.14.66l-8.96 10.92zm13.509 16.4c-.454 0-.68-.227-.68-.68V10.86c0-.453.226-.68.68-.68h16.08c.506 0 .706.267.6.8l-.96 4.68c-.054.24-.147.42-.28.54-.134.12-.347.18-.64.18h-8.56v5h7c.453 0 .68.227.68.68v4.4c0 .453-.227.68-.68.68h-7v5.2h9.68c.453 0 .68.227.68.68v4.8c0 .453-.227.68-.68.68h-15.92zm40.748-28.32c.213 0 .387.06.52.18s.173.327.12.62l-1 4.68c-.053.24-.147.42-.28.54-.133.12-.347.18-.64.18h-6v21.44c0 .453-.227.68-.68.68h-5.56c-.453 0-.68-.227-.68-.68V16.38h-6.72c-.453 0-.68-.227-.68-.68v-4.84c0-.453.227-.68.68-.68h20.92z"/><use fill="#f86800" xlink:href="#a"/></g></svg>
