<?xml version="1.0" encoding="UTF-8" standalone="no"?>
<!-- Generator: Adobe Illustrator 19.0.0, SVG Export Plug-In . SVG Version: 6.00 Build 0)  -->

<svg
   xmlns:dc="http://purl.org/dc/elements/1.1/"
   xmlns:cc="http://creativecommons.org/ns#"
   xmlns:rdf="http://www.w3.org/1999/02/22-rdf-syntax-ns#"
   xmlns:svg="http://www.w3.org/2000/svg"
   xmlns="http://www.w3.org/2000/svg"
   xmlns:sodipodi="http://sodipodi.sourceforge.net/DTD/sodipodi-0.dtd"
   xmlns:inkscape="http://www.inkscape.org/namespaces/inkscape"
   version="1.1"
   id="Capa_1"
   x="0px"
   y="0px"
   viewBox="0 0 512.001 512.001"
   style="enable-background:new 0 0 512.001 512.001;"
   xml:space="preserve"
   sodipodi:docname="salad.svg"
   inkscape:export-filename="/Users/oalaitinen/Documents/salad.png"
   inkscape:export-xdpi="2502.3999"
   inkscape:export-ydpi="2502.3999"
   inkscape:version="0.92.2 5c3e80d, 2017-08-06"><metadata
     id="metadata157"><rdf:RDF><cc:Work
         rdf:about=""><dc:format>image/svg+xml</dc:format><dc:type
           rdf:resource="http://purl.org/dc/dcmitype/StillImage" /></cc:Work></rdf:RDF></metadata><defs
     id="defs155" /><sodipodi:namedview
     pagecolor="#ffffff"
     bordercolor="#666666"
     borderopacity="1"
     objecttolerance="10"
     gridtolerance="10"
     guidetolerance="10"
     inkscape:pageopacity="0"
     inkscape:pageshadow="2"
     inkscape:window-width="1680"
     inkscape:window-height="1005"
     id="namedview153"
     showgrid="false"
     inkscape:zoom="0.46093662"
     inkscape:cx="256.00049"
     inkscape:cy="256.00049"
     inkscape:window-x="0"
     inkscape:window-y="1"
     inkscape:window-maximized="1"
     inkscape:current-layer="Capa_1" /><g
     id="g6"
     style="fill:#f86800;fill-opacity:1"><g
       id="g4"
       style="fill:#f86800;fill-opacity:1"><path
         d="M503.45,324.28H8.55c-4.71,0-8.533,3.814-8.533,8.533c0,98.801,80.379,179.188,179.188,179.188h153.59    c98.801,0,179.188-80.387,179.188-179.188C511.983,328.094,508.169,324.28,503.45,324.28z M332.795,494.935h-153.59    c-86.531,0-157.447-68.143-161.901-153.59h477.391C490.242,426.792,419.326,494.935,332.795,494.935z"
         id="path2"
         style="fill:#f86800;fill-opacity:1" /></g></g><g
     id="g12"
     style="fill:#f86800;fill-opacity:1"><g
       id="g10"
       style="fill:#f86800;fill-opacity:1"><path
         d="M435.223,119.545c0-0.623-0.009-1.246-0.068-2.193c-1.314-14.147-11.041-25.769-23.883-30.129l9.659-9.659    c16.75-16.408,18.431-42.655,3.771-61.188c-15.7-19.079-43.995-21.793-63.066-6.101c-1.084,0.896-2.133,1.843-3.183,2.893    l-10.495,10.649c-4.403-12.774-16.05-22.433-30.402-23.764c-18.9-1.032-34.899,13.473-35.914,32.262    c-0.034,0.623-0.043,1.246-0.043,1.86v13.081c-5.017-2.91-10.828-4.582-17.031-4.591c-0.614,0-1.246,0.017-2.193,0.068    c-18.243,1.698-32.279,17.373-31.972,35.547v11.605c-5.12-2.961-10.956-4.548-17.031-4.557c-0.614,0-1.237,0.017-2.184,0.068    c-18.252,1.698-32.288,17.373-31.981,35.548v126.541c0,4.719,3.823,8.533,8.533,8.533h145.057    c18.823,0,34.131-15.308,34.122-34.114c0-6.212-1.664-12.04-4.582-17.065h11.528c18.328,0.503,34.003-13.738,35.718-32.314    c0.367-6.946-1.374-13.516-4.667-19.096c7.662-0.853,14.753-4.241,20.282-9.753C431.647,137.242,435.214,128.675,435.223,119.545z     M413.148,131.593c-3.225,3.208-7.5,4.975-12.065,4.975c-0.009,0-0.017,0-0.026,0h-25.598c-4.719,0-8.533,3.823-8.533,8.533    s3.814,8.533,8.533,8.533l0.939,0.026c9.403,0.503,16.639,8.558,16.161,17.62c-0.87,9.403-8.848,16.682-18.55,16.485h-41.213    c-4.719,0-8.533,3.823-8.533,8.533s3.814,8.533,8.533,8.533c9.412,0,17.066,7.654,17.066,17.066s-7.654,17.066-17.066,17.066    H196.271V120.799c-0.162-9.446,7.091-17.526,16.161-18.38l0.93-0.026c9.395,0.008,17.031,7.654,17.04,17.04v0.06    c0,4.71,3.814,8.533,8.524,8.533c0.009,0,0.009,0,0.009,0c4.71,0,8.524-3.814,8.533-8.524v-0.008V78.135    c-0.162-9.446,7.091-17.526,16.161-18.38l0.922-0.026c9.403,0.017,17.04,7.662,17.049,17.057v0.051    c0,4.71,3.814,8.533,8.524,8.533c0.009,0,0.009,0,0.009,0c4.71,0,8.524-3.814,8.533-8.524v-0.009V34.174l0.026-0.947    c0.495-9.395,8.362-16.63,17.612-16.161c9.42,0.879,16.664,8.959,16.485,18.567v7.082c0,3.456,2.091,6.579,5.299,7.893    c3.183,1.314,6.886,0.563,9.309-1.911l23.149-23.491c0.631-0.623,1.28-1.212,1.954-1.766c11.809-9.71,29.31-8.021,38.935,3.652    c9.113,11.536,8.063,27.987-2.5,38.338l-22.441,22.441c-2.44,2.44-3.174,6.109-1.852,9.301c1.314,3.183,4.437,5.265,7.884,5.265    h7.082c0.179,0,0.307,0,0.452,0c9.318,0,17.236,7.185,18.072,16.161l0.026,0.939C418.148,124.093,416.374,128.376,413.148,131.593    z"
         id="path8"
         style="fill:#f86800;fill-opacity:1" /></g></g><g
     id="g18"
     style="fill:#f86800;fill-opacity:1"><g
       id="g16"
       style="fill:#f86800;fill-opacity:1"><rect
         x="87.075"
         y="170.67"
         transform="matrix(0.7071 -0.7071 0.7071 0.7071 -51.7312 233.5161)"
         width="337.877"
         height="17.065"
         id="rect14"
         style="fill:#f86800;fill-opacity:1" /></g></g><g
     id="g24"
     style="fill:#f86800;fill-opacity:1"><g
       id="g22"
       style="fill:#f86800;fill-opacity:1"><rect
         x="315.713"
         y="68.348"
         width="17.066"
         height="42.664"
         id="rect20"
         style="fill:#f86800;fill-opacity:1" /></g></g><g
     id="g30"
     style="fill:#f86800;fill-opacity:1"><g
       id="g28"
       style="fill:#f86800;fill-opacity:1"><rect
         x="264.516"
         y="111.012"
         width="17.066"
         height="51.197"
         id="rect26"
         style="fill:#f86800;fill-opacity:1" /></g></g><g
     id="g36"
     style="fill:#f86800;fill-opacity:1"><g
       id="g34"
       style="fill:#f86800;fill-opacity:1"><rect
         x="213.319"
         y="153.59"
         width="17.066"
         height="59.729"
         id="rect32"
         style="fill:#f86800;fill-opacity:1" /></g></g><g
     id="g42"
     style="fill:#f86800;fill-opacity:1"><g
       id="g40"
       style="fill:#f86800;fill-opacity:1"><rect
         x="324.245"
         y="102.479"
         width="42.664"
         height="17.065"
         id="rect38"
         style="fill:#f86800;fill-opacity:1" /></g></g><g
     id="g48"
     style="fill:#f86800;fill-opacity:1"><g
       id="g46"
       style="fill:#f86800;fill-opacity:1"><rect
         x="273.049"
         y="153.59"
         width="51.197"
         height="17.065"
         id="rect44"
         style="fill:#f86800;fill-opacity:1" /></g></g><g
     id="g54"
     style="fill:#f86800;fill-opacity:1"><g
       id="g52"
       style="fill:#f86800;fill-opacity:1"><rect
         x="221.852"
         y="204.787"
         width="59.729"
         height="17.066"
         id="rect50"
         style="fill:#f86800;fill-opacity:1" /></g></g><g
     id="g60"
     style="fill:#f86800;fill-opacity:1"><g
       id="g58"
       style="fill:#f86800;fill-opacity:1"><path
         d="M159.281,39.473c-0.008-0.017-0.026-0.034-0.034-0.051c-12.04-18.03-36.512-22.928-54.533-10.888    c-0.563,0.367-1.118,0.759-1.749,1.229l-3.072,2.338l-2.952-2.125C81.326,15.411,56.777,16,41.913,31.427    c-7.278,7.543-11.186,17.475-10.99,27.962c0.196,10.487,4.454,20.265,11.989,27.535c2.193,2.116,4.633,3.976,7.261,5.529    l7.185,5.615v4.369c0,23.525,19.139,42.664,42.664,42.664s42.664-19.148,42.655-42.672v-4.369l7.552-5.896    C166.568,79.765,170.536,56.616,159.281,39.473z M139.818,78.647l-10.922,8.533c-2.065,1.613-3.277,4.096-3.277,6.724v8.533    c0,14.113-11.485,25.598-25.598,25.598c-14.113,0-25.598-11.485-25.598-25.598v-8.533c0-2.628-1.203-5.111-3.277-6.724    l-10.922-8.533c-0.324-0.256-0.674-0.486-1.032-0.691c-1.604-0.913-3.089-2.022-4.42-3.311c-4.266-4.113-6.673-9.642-6.784-15.564    c-0.111-5.922,2.099-11.536,6.212-15.803c4.343-4.505,10.154-6.775,15.973-6.775c5.546,0,11.101,2.056,15.402,6.212    c0.29,0.273,0.597,0.538,0.93,0.776l8.533,6.144c3.038,2.193,7.159,2.142,10.146-0.128l8.994-6.766    c4.949-3.311,10.879-4.471,16.716-3.319c5.819,1.16,10.845,4.514,14.147,9.446C151.372,58.544,149.119,71.582,139.818,78.647z"
         id="path56"
         style="fill:#f86800;fill-opacity:1" /></g></g><g
     id="g66"
     style="fill:#f86800;fill-opacity:1"><g
       id="g64"
       style="fill:#f86800;fill-opacity:1"><rect
         x="187.721"
         y="8.533"
         width="17.066"
         height="17.065"
         id="rect62"
         style="fill:#f86800;fill-opacity:1" /></g></g><g
     id="g72"
     style="fill:#f86800;fill-opacity:1"><g
       id="g70"
       style="fill:#f86800;fill-opacity:1"><rect
         x="238.918"
         y="281.582"
         width="17.065"
         height="17.065"
         id="rect68"
         style="fill:#f86800;fill-opacity:1" /></g></g><g
     id="g78"
     style="fill:#f86800;fill-opacity:1"><g
       id="g76"
       style="fill:#f86800;fill-opacity:1"><path
         d="M460.787,51.24v17.066c9.412,0,17.066,7.654,17.066,17.065s-7.654,17.066-17.066,17.066v17.065    c18.823,0,34.131-15.308,34.131-34.131C494.918,66.548,479.61,51.24,460.787,51.24z"
         id="path74"
         style="fill:#f86800;fill-opacity:1" /></g></g><g
     id="g84"
     style="fill:#f86800;fill-opacity:1"><g
       id="g82"
       style="fill:#f86800;fill-opacity:1"><rect
         x="17.066"
         y="128.077"
         width="17.065"
         height="17.066"
         id="rect80"
         style="fill:#f86800;fill-opacity:1" /></g></g><g
     id="g90"
     style="fill:#f86800;fill-opacity:1"><g
       id="g88"
       style="fill:#f86800;fill-opacity:1"><rect
         x="0.017"
         y="93.946"
         width="17.065"
         height="17.066"
         id="rect86"
         style="fill:#f86800;fill-opacity:1" /></g></g><g
     id="g96"
     style="fill:#f86800;fill-opacity:1"><g
       id="g94"
       style="fill:#f86800;fill-opacity:1"><path
         d="M332.795,273.083c-18.823,0-34.131,15.308-34.131,34.131h17.066c0-9.412,7.654-17.066,17.065-17.066    c9.412,0,17.066,7.654,17.066,17.066h17.065C366.926,288.391,351.618,273.083,332.795,273.083z"
         id="path92"
         style="fill:#f86800;fill-opacity:1" /></g></g><g
     id="g102"
     style="fill:#f86800;fill-opacity:1"><g
       id="g100"
       style="fill:#f86800;fill-opacity:1"><path
         d="M102.411,196.288h-1.075C97.53,181.586,84.159,170.69,68.28,170.69s-29.259,10.896-33.056,25.598h-1.075    c-18.823,0-34.131,15.308-34.131,34.131c0,18.823,15.308,34.131,34.131,34.131h68.262c18.823,0,34.131-15.308,34.131-34.131    C136.542,211.596,121.234,196.288,102.411,196.288z M102.411,247.493H34.148c-9.412,0-17.066-7.654-17.066-17.065    c0-9.412,7.654-17.066,17.066-17.066h8.533c4.71,0,8.533-3.823,8.533-8.533c0-9.412,7.654-17.065,17.066-17.065    s17.066,7.654,17.066,17.065c0,4.71,3.823,8.533,8.533,8.533h8.533c9.412,0,17.066,7.654,17.066,17.066    C119.476,239.84,111.822,247.493,102.411,247.493z"
         id="path98"
         style="fill:#f86800;fill-opacity:1" /></g></g><g
     id="g108"
     style="fill:#f86800;fill-opacity:1"><g
       id="g106"
       style="fill:#f86800;fill-opacity:1"><path
         d="M85.345,247.485H51.214c-4.71,0-8.533,3.823-8.533,8.533v34.131c0,4.719,3.823,8.533,8.533,8.533h34.131    c4.71,0,8.533-3.814,8.533-8.533v-34.131C93.878,251.308,90.055,247.485,85.345,247.485z M76.812,281.616H59.747v-17.065h17.066    V281.616z"
         id="path104"
         style="fill:#f86800;fill-opacity:1" /></g></g><g
     id="g114"
     style="fill:#f86800;fill-opacity:1"><g
       id="g112"
       style="fill:#f86800;fill-opacity:1"><path
         d="M452.254,221.887c-14.113,0-25.598,11.485-25.598,25.598s11.485,25.598,25.598,25.598    c14.113,0,25.598-11.485,25.598-25.598S466.367,221.887,452.254,221.887z M452.254,256.026c-4.71,0-8.533-3.831-8.533-8.533    c0-4.702,3.823-8.533,8.533-8.533s8.533,3.823,8.533,8.533C460.787,252.204,456.964,256.026,452.254,256.026z"
         id="path110"
         style="fill:#f86800;fill-opacity:1" /></g></g><g
     id="g120"
     style="fill:#f86800;fill-opacity:1"><g
       id="g118"
       style="fill:#f86800;fill-opacity:1"><path
         d="M452.254,187.756c-32.928,0-59.729,26.793-59.729,59.729s26.801,59.729,59.729,59.729    c32.928,0,59.729-26.793,59.729-59.729S485.182,187.756,452.254,187.756z M452.254,290.157c-23.525,0-42.664-19.147-42.664-42.664    c0-23.525,19.139-42.664,42.664-42.664c23.525,0,42.664,19.139,42.664,42.664C494.918,271.018,475.779,290.157,452.254,290.157z"
         id="path116"
         style="fill:#f86800;fill-opacity:1" /></g></g><g
     id="g122" /><g
     id="g124" /><g
     id="g126" /><g
     id="g128" /><g
     id="g130" /><g
     id="g132" /><g
     id="g134" /><g
     id="g136" /><g
     id="g138" /><g
     id="g140" /><g
     id="g142" /><g
     id="g144" /><g
     id="g146" /><g
     id="g148" /><g
     id="g150" /></svg>