<?xml version="1.0" encoding="UTF-8" standalone="no"?>
<!-- Generator: Adobe Illustrator 19.0.0, SVG Export Plug-In . SVG Version: 6.00 Build 0)  -->

<svg
   xmlns:dc="http://purl.org/dc/elements/1.1/"
   xmlns:cc="http://creativecommons.org/ns#"
   xmlns:rdf="http://www.w3.org/1999/02/22-rdf-syntax-ns#"
   xmlns:svg="http://www.w3.org/2000/svg"
   xmlns="http://www.w3.org/2000/svg"
   xmlns:sodipodi="http://sodipodi.sourceforge.net/DTD/sodipodi-0.dtd"
   xmlns:inkscape="http://www.inkscape.org/namespaces/inkscape"
   version="1.1"
   id="Capa_1"
   x="0px"
   y="0px"
   viewBox="0 0 512 512"
   style="enable-background:new 0 0 512 512;"
   xml:space="preserve"
   sodipodi:docname="website.svg"
   inkscape:export-filename="/Users/oalaitinen/Documents/website.png"
   inkscape:export-xdpi="2502.7"
   inkscape:export-ydpi="2502.7"
   inkscape:version="0.92.2 5c3e80d, 2017-08-06"><metadata
     id="metadata97"><rdf:RDF><cc:Work
         rdf:about=""><dc:format>image/svg+xml</dc:format><dc:type
           rdf:resource="http://purl.org/dc/dcmitype/StillImage" /></cc:Work></rdf:RDF></metadata><defs
     id="defs95" /><sodipodi:namedview
     pagecolor="#ffffff"
     bordercolor="#666666"
     borderopacity="1"
     objecttolerance="10"
     gridtolerance="10"
     guidetolerance="10"
     inkscape:pageopacity="0"
     inkscape:pageshadow="2"
     inkscape:window-width="1680"
     inkscape:window-height="1005"
     id="namedview93"
     showgrid="false"
     inkscape:zoom="0.95566099"
     inkscape:cx="320"
     inkscape:cy="223.45763"
     inkscape:window-x="0"
     inkscape:window-y="1"
     inkscape:window-maximized="1"
     inkscape:current-layer="Capa_1" /><g
     id="g6"
     style="fill:#f86800;stroke:#680000;stroke-opacity:0;fill-opacity:1"><g
       id="g4"
       style="fill:#f86800;stroke:#680000;stroke-opacity:0;fill-opacity:1"><path
         d="M477.858,8.533H34.142C15.317,8.533,0,23.851,0,42.675v281.591c0,4.71,3.823,8.533,8.533,8.533h494.933    c4.71,0,8.533-3.823,8.533-8.533V42.675C512,23.851,496.683,8.533,477.858,8.533z M494.933,315.733H17.067V42.675    c0-9.421,7.663-17.075,17.075-17.075h443.716c9.412,0,17.075,7.654,17.075,17.075V315.733z"
         id="path2"
         style="fill:#f86800;stroke:#680000;stroke-opacity:0;fill-opacity:1" /></g></g><g
     id="g12"
     style="fill:#f86800;stroke:#680000;stroke-opacity:0;fill-opacity:1"><g
       id="g10"
       style="fill:#f86800;stroke:#680000;stroke-opacity:0;fill-opacity:1"><path
         d="M503.467,315.733H8.533c-4.71,0-8.533,3.823-8.533,8.533v42.658c0,18.825,15.317,34.142,34.142,34.142h443.716    c18.825,0,34.142-15.317,34.142-34.142v-42.658C512,319.556,508.177,315.733,503.467,315.733z M494.933,366.925    c0,9.421-7.663,17.075-17.075,17.075H34.142c-9.412,0-17.075-7.654-17.075-17.075V332.8h477.867V366.925z"
         id="path8"
         style="fill:#f86800;stroke:#680000;stroke-opacity:0;fill-opacity:1" /></g></g><g
     id="g18"
     style="fill:#f86800;stroke:#680000;stroke-opacity:0;fill-opacity:1"><g
       id="g16"
       style="fill:#f86800;stroke:#680000;stroke-opacity:0;fill-opacity:1"><path
         d="M281.6,349.867h-51.2c-4.71,0-8.533,3.823-8.533,8.533s3.823,8.533,8.533,8.533h51.2c4.71,0,8.533-3.823,8.533-8.533    S286.31,349.867,281.6,349.867z"
         id="path14"
         style="fill:#f86800;stroke:#680000;stroke-opacity:0;fill-opacity:1" /></g></g><g
     id="g24"
     style="fill:#f86800;stroke:#680000;stroke-opacity:0;fill-opacity:1"><g
       id="g22"
       style="fill:#f86800;stroke:#680000;stroke-opacity:0;fill-opacity:1"><path
         d="M469.333,42.667H42.667c-4.71,0-8.533,3.823-8.533,8.533v273.067c0,4.71,3.823,8.533,8.533,8.533h426.667    c4.71,0,8.533-3.823,8.533-8.533V51.2C477.867,46.49,474.044,42.667,469.333,42.667z M460.8,315.733H51.2v-256h409.6V315.733z"
         id="path20"
         style="fill:#f86800;stroke:#680000;stroke-opacity:0;fill-opacity:1" /></g></g><g
     id="g30"
     style="fill:#f86800;stroke:#680000;stroke-opacity:0;fill-opacity:1"><g
       id="g28"
       style="fill:#f86800;stroke:#680000;stroke-opacity:0;fill-opacity:1"><path
         d="M366.933,452.267H145.067c-14.114,0-25.6,11.486-25.6,25.6s11.486,25.6,25.6,25.6h221.867c14.114,0,25.6-11.486,25.6-25.6    S381.047,452.267,366.933,452.267z M366.933,486.4H145.067c-4.71,0-8.533-3.831-8.533-8.533s3.823-8.533,8.533-8.533h221.867    c4.71,0,8.533,3.831,8.533,8.533S371.644,486.4,366.933,486.4z"
         id="path26"
         style="fill:#f86800;stroke:#680000;stroke-opacity:0;fill-opacity:1" /></g></g><g
     id="g36"
     style="fill:#f86800;stroke:#680000;stroke-opacity:0;fill-opacity:1"><g
       id="g34"
       style="fill:#f86800;stroke:#680000;stroke-opacity:0;fill-opacity:1"><path
         d="M349.867,452.267c-28.314,0-42.667-20.096-42.667-59.733c0-4.71-3.823-8.533-8.533-8.533h-85.333    c-4.71,0-8.533,3.823-8.533,8.533c0,39.637-14.353,59.733-42.667,59.733c-4.71,0-8.533,3.823-8.533,8.533    c0,4.71,3.823,8.533,8.533,8.533h187.733c4.71,0,8.533-3.823,8.533-8.533C358.4,456.09,354.577,452.267,349.867,452.267z     M203.699,452.267c10.505-11.639,16.691-28.971,17.937-51.2h68.736c1.237,22.229,7.424,39.561,17.937,51.2H203.699z"
         id="path32"
         style="fill:#f86800;stroke:#680000;stroke-opacity:0;fill-opacity:1" /></g></g><g
     id="g42"
     style="fill:#f86800;stroke:#680000;stroke-opacity:0;fill-opacity:1"><g
       id="g40"
       style="fill:#f86800;stroke:#680000;stroke-opacity:0;fill-opacity:1"><path
         d="M407.757,259.959l-20.599-20.599l11.46-11.46c2.125-2.125,2.978-5.214,2.244-8.124c-0.734-2.91-2.944-5.214-5.82-6.084    l-85.333-25.6c-3.012-0.905-6.263-0.077-8.482,2.142c-2.227,2.219-3.046,5.478-2.142,8.482l25.6,85.333    c0.862,2.884,3.174,5.094,6.084,5.828c2.901,0.717,5.999-0.12,8.124-2.244l12.066-12.075l20.599,20.608    c1.596,1.604,3.772,2.5,6.033,2.5s4.437-0.896,6.033-2.5l24.132-24.141C411.093,268.689,411.093,263.296,407.757,259.959z     M377.591,278.067l-18.756-18.765c-2.176-2.176-5.026-3.26-7.876-3.26c-2.859,0-5.709,1.092-7.876,3.251l-6.161,6.161    l-16.939-56.465l56.465,16.939l-6.605,6.605c-1.818,1.826-2.816,4.25-2.816,6.827c0,2.586,1.007,5.026,2.833,6.835l19.797,19.797    L377.591,278.067z"
         id="path38"
         style="fill:#f86800;stroke:#680000;stroke-opacity:0;fill-opacity:1" /></g></g><g
     id="g48"
     style="fill:#f86800;stroke:#680000;stroke-opacity:0;fill-opacity:1"><g
       id="g46"
       style="fill:#f86800;stroke:#680000;stroke-opacity:0;fill-opacity:1"><path
         d="M358.4,76.8H119.467c-4.71,0-8.533,3.823-8.533,8.533V128c0,4.71,3.823,8.533,8.533,8.533H358.4    c4.71,0,8.533-3.823,8.533-8.533V85.333C366.933,80.623,363.11,76.8,358.4,76.8z M349.867,119.467H128v-25.6h221.867V119.467z"
         id="path44"
         style="fill:#f86800;stroke:#680000;stroke-opacity:0;fill-opacity:1" /></g></g><g
     id="g54"
     style="fill:#f86800;stroke:#680000;stroke-opacity:0;fill-opacity:1"><g
       id="g52"
       style="fill:#f86800;stroke:#680000;stroke-opacity:0;fill-opacity:1"><path
         d="M221.867,170.667H153.6c-4.71,0-8.533,3.823-8.533,8.533v34.133c0,4.71,3.823,8.533,8.533,8.533h68.267    c4.71,0,8.533-3.823,8.533-8.533V179.2C230.4,174.49,226.577,170.667,221.867,170.667z M213.333,204.8h-51.2v-17.067h51.2V204.8z"
         id="path50"
         style="fill:#f86800;stroke:#680000;stroke-opacity:0;fill-opacity:1" /></g></g><g
     id="g60"
     style="fill:#f86800;stroke:#680000;stroke-opacity:0;fill-opacity:1"><g
       id="g58"
       style="fill:#f86800;stroke:#680000;stroke-opacity:0;fill-opacity:1"><path
         d="M358.4,76.8H119.467c-4.71,0-8.533,3.823-8.533,8.533v162.133c0,4.71,3.823,8.533,8.533,8.533h203.145    c2.705,0,5.239-1.271,6.844-3.439c1.613-2.167,2.108-4.966,1.331-7.552l-10.803-36.019l35.968,10.795    c2.586,0.777,5.385,0.282,7.543-1.331c2.167-1.604,3.439-4.147,3.439-6.844V85.333C366.933,80.623,363.11,76.8,358.4,76.8z     M349.867,200.141L309.7,188.092c-3.012-0.905-6.263-0.077-8.482,2.142c-2.227,2.227-3.046,5.478-2.142,8.491l12.066,40.209H128    V93.867h221.867V200.141z"
         id="path56"
         style="fill:#f86800;stroke:#680000;stroke-opacity:0;fill-opacity:1" /></g></g><g
     id="g62" /><g
     id="g64" /><g
     id="g66" /><g
     id="g68" /><g
     id="g70" /><g
     id="g72" /><g
     id="g74" /><g
     id="g76" /><g
     id="g78" /><g
     id="g80" /><g
     id="g82" /><g
     id="g84" /><g
     id="g86" /><g
     id="g88" /><g
     id="g90" /></svg>